<svg width="28" height="28" viewBox="0 0 28 28" fill="none" xmlns="http://www.w3.org/2000/svg">
<path d="M27.9816 13.8245C27.4155 3.2815 22.3321 1.74 18.2338 1.7395H18.2333C17.1978 1.74 16.2262 1.838 15.4053 1.915C15.3983 1.4355 15.4174 0.922 15.4926 0.3545C15.494 0.3465 15.4907 0.3395 15.4898 0.332C15.4907 0.328 15.4926 0.324 15.4926 0.32C15.4926 0.1435 15.1827 0 14.7991 0C14.4164 0 14.1066 0.1435 14.1066 0.32C14.0016 0.892046 13.8586 1.45532 13.6786 2.0055C8.27133 2.0405 1.14855 2.9595 0.0612148 13.4665C-0.727457 21.092 6.22359 28 14.0436 28C21.8635 28 28.3927 21.4875 27.9816 13.8245ZM15.6965 3.3935C15.8874 3.3755 16.0852 3.357 16.2887 3.3395C16.0442 3.445 15.8066 3.5545 15.5831 3.6645C15.5668 3.5855 15.5556 3.4915 15.5406 3.4075L15.6965 3.3935ZM13.1023 3.5125C13.0412 3.649 12.9814 3.78 12.924 3.9005C12.7864 3.76705 12.641 3.64313 12.4886 3.5295C12.693 3.522 12.8974 3.517 13.1023 3.5125ZM23.6355 22.163C21.2065 24.9195 17.7102 26.5 14.0436 26.5C10.3069 26.5 6.59552 24.728 4.11471 21.76C2.10476 19.3545 1.15929 16.468 1.45282 13.6315C2.00396 8.3075 4.20244 5.7645 7.02392 4.56C9.75767 4.016 12.33 5.015 12.33 5.015C12.33 5.015 6.48305 3.46 4.19031 11.509C7.07572 6.6895 12.0411 8.108 13.3473 6.3315C13.3473 9.766 15.6769 8.0995 16.8543 9.6465C18.3691 11.6355 18.9235 15.1995 20.6661 15.9015C18.9497 11.9535 21.7599 12.1075 17.8115 6.809C19.8914 8.1935 20.9699 6.7925 23.81 8.04C21.3801 3.7845 17.4927 5.015 17.4927 5.015C17.4927 5.015 19.0747 3.4705 20.7519 3.5135C23.5856 4.2225 26.1919 6.608 26.5844 13.911C26.744 16.8935 25.6968 19.824 23.6355 22.163Z" fill="#F3F3F3"/>
</svg>
