<svg xmlns="http://www.w3.org/2000/svg" aria-hidden="true" style="position:absolute;width:0;height:0;overflow:hidden">
  <defs>
    <symbol id="icon-down" viewBox="0 0 59 32">
      <path d="M57.438 1.605c-.424-.414-1.004-.67-1.644-.67s-1.221.256-1.645.67l-24.61 23.99L4.933 1.605a2.35 2.35 0 0 0-3.289 0c-.418.407-.677.976-.677 1.605s.259 1.198.677 1.604L27.82 30.325a2.459 2.459 0 0 0 3.437 0L57.433 4.814c.418-.407.677-.976.677-1.605s-.259-1.198-.677-1.604h.005z"/>
    </symbol>
    <symbol id="icon-up" viewBox="0 0 59 32">
      <path d="M1.639 30.395c.424.414 1.004.67 1.644.67s1.221-.256 1.645-.67l24.61-23.99 24.606 23.99c.424.414 1.004.67 1.644.67s1.221-.256 1.645-.67c.417-.408.676-.976.676-1.605s-.259-1.197-.676-1.605L31.257 1.674c-.443-.432-1.049-.699-1.718-.699s-1.275.267-1.719.699L1.644 27.185c-.418.407-.677.976-.677 1.605s.259 1.198.677 1.604h-.005z"/>
    </symbol>
  </defs>
</svg>
